{"title":"The.Big.White.2005.DvDRiP.XViD.AC3(5.1).Optional MultiSub.Zen_Bu","uid":5820005,"size":1506989322,"categoryP":"video","categoryS":"movies","magnet":"?xt=urn:btih:036cc3a31c0e0f3b73d4faf6c5a8e98ca239f827&amp;dn=The.Big.White.2005.DvDRiP.XViD.AC3%285.1%29.Optional+MultiSub.Zen_Bu&amp;tr=udp%3A%2F%2Ftracker.openbittorrent.com%3A80&amp;tr=udp%3A%2F%2Fopen.demonii.com%3A1337&amp;tr=udp%3A%2F%2Ftracker.coppersurfer.tk%3A6969&amp;tr=udp%3A%2F%2Fexodus.desync.com%3A6969","seeders":0,"leechers":0,"uploader":"Zen_Bud","files":-1,"time":1284018700,"description":"\nComplete name                    : The.Big.White.2005.avi\nFormat                           : AVI\nFile size                        : 1.37 GiB\nDuration                         : 1h 44mn\nOverall bit rate                 : 1 872 Kbps\n\nVideo\n\nFormat                           : MPEG-4 Visual\nCodec ID/Hint                    : XviD\nDuration                         : 1h 44mn\nBit rate                         : 1 413 Kbps\nWidth                            : 720 pixels\nHeight                           : 576 pixels\nDisplay aspect ratio             : 16:9\nStream size                      : 1.03 GiB (75%)\nWriting library                  : XviD 1.1.2 (UTC 2006-11-01)\n\nAudio\n\nFormat                           : AC-3\nDuration                         : 1h 44mn\nBit rate                         : 448 Kbps\nChannel(s)                       : 6 channels\nChannel positions                : Front: L C R, Side: L R, LFE\nSampling rate                    : 48.0 KHz\nBit depth                        : 16 bits\nStream size                      : 336 MiB (24%)\n\n\nText #1\nLanguage                         : Danish\n\nText #2\nLanguage                         : Dutch\n\nText #3\nLanguage                         : Finnish\n\nText #4\nLanguage                         : French\n\nText #5\nLanguage                         : English\n\nText #6\nLanguage                         : German\n\nText #7\nLanguage                         : Italian\n\nText #8\nLanguage                         : Norwegian\n\nText #9\nLanguage                         : Spanish\n\nText #10\nLanguage                         : Swedish","torrent":{"xt":"urn:btih:036cc3a31c0e0f3b73d4faf6c5a8e98ca239f827","amp;dn":"The.Big.White.2005.DvDRiP.XViD.AC3%285.1%29.Optional+MultiSub.Zen_Bu","amp;tr":["udp%3A%2F%2Ftracker.openbittorrent.com%3A80","udp%3A%2F%2Fopen.demonii.com%3A1337","udp%3A%2F%2Ftracker.coppersurfer.tk%3A6969","udp%3A%2F%2Fexodus.desync.com%3A6969"],"infoHash":"036cc3a31c0e0f3b73d4faf6c5a8e98ca239f827","infoHashBuffer":{"type":"Buffer","data":[3,108,195,163,28,14,15,59,115,212,250,246,197,168,233,140,162,57,248,39]},"announce":[],"urlList":[]}}